<svg width="50" height="50" viewBox="0 0 50 50" fill="none" xmlns="http://www.w3.org/2000/svg">
<path d="M25 0C11.1932 0 0 11.1932 0 25C0 38.8068 11.1932 50 25 50C38.8068 50 50 38.8068 50 25C50 11.1932 38.8068 0 25 0ZM25 48.4953C12.0248 48.4953 1.50475 37.9752 1.50475 25C1.50475 12.0248 12.0248 1.50475 25 1.50475C37.9752 1.50475 48.4953 12.0248 48.4953 25C48.4953 37.9752 37.9752 48.4953 25 48.4953Z" fill="#2A2A2A"/>
<path d="M3.45845 27.5343L4.25043 27.0195L5.25359 26.5839L5.87397 24.2344H6.19076V24.2212H7.44472L9.75465 20.6573H10.6258L11.299 19.0206L13.0545 19.7598L13.7013 19.6674L16.0244 22.1093L18.6116 18.6378H19.8655L21.9775 14.8891H22.743L24.4722 12.2888L24.525 12.368C24.5382 12.3416 24.5646 12.3152 24.5778 12.2888C25.3302 12.962 26.0957 13.6352 26.8481 14.3083L27.6401 14.4403L27.7853 15.9451L30.6364 19.2318L31.6659 18.7962L33.1311 20.0634C33.2499 19.971 33.3819 19.8654 33.5007 19.773L33.5139 19.7202L35.441 18.0834L35.5466 18.2022C35.5598 18.189 35.573 18.1758 35.5862 18.1626C35.6786 17.9514 35.7578 17.7534 35.8502 17.5422C36.9458 18.7434 38.0281 19.9314 39.1237 21.1325L39.8233 21.0533L41.3148 22.9541C41.658 22.9805 42.0012 23.0201 42.3444 23.0465C42.4896 23.8252 42.648 24.5908 42.7932 25.3696C44.4167 27.1383 46.0271 28.9203 47.6506 30.689C47.9014 30.7418 48.1654 30.7946 48.4162 30.8606C48.4426 30.7682 48.469 30.6626 48.4822 30.5702L47.611 30.3458L42.9912 25.2508L42.4104 22.8485L41.262 22.6505L39.9157 20.9213H39.1501L35.8238 17.2122L35.441 17.9778L33.0783 19.8522L31.7319 18.5982L30.676 18.8886L27.9833 15.5227L27.8909 14.2687L27.0197 14.0707L24.7626 11.8136L22.6506 14.7043H21.7795L19.7599 18.5586H18.6116L16.0113 21.9245L13.7277 19.377H13.0545L11.3254 18.321L10.2694 20.3405L9.50386 20.4329L7.28633 24.0892H5.74198L5.0688 26.3992L3.23406 27.3627L2.36289 29.5275L1.47852 30.359C1.49172 30.4118 1.50491 30.4778 1.51811 30.5306L2.45528 29.6331L3.45845 27.5343Z" fill="#2A2A2A"/>
<path d="M4.83116 30.0026V29.435L4.06559 28.6695V27.9831L4.73877 26.9271L4.26358 27.0195L3.498 27.6003L3.40561 28.4715L2.34964 30.491L2.82483 31.745L2.32324 33.1705C2.34964 33.2233 2.36284 33.2893 2.38924 33.3421L4.17118 31.8506L4.83116 30.0026Z" fill="#2A2A2A"/>
<path d="M9.72793 20.6705L7.41801 24.2344L6.17725 24.2476L6.46764 26.056L7.23321 27.7983L8.48717 27.0195V28.6563L9.54314 28.5639V29.9102L11.7607 27.6927L11.2723 27.2175L10.9819 26.6367L11.3647 25.8712L10.9819 25.6732L11.9455 25.1056V22.9805L10.6915 23.6536H10.2163L10.3087 23.2709L12.4338 21.8321L12.2359 20.5781L11.2723 19.0338L10.5991 20.6705H9.72793Z" fill="#2A2A2A"/>
<path d="M9.72793 20.6705L7.41801 24.2344H6.17725V24.2476L7.41801 24.2344L9.72793 20.6705Z" fill="#2A2A2A"/>
<path d="M21.9511 14.9023L19.8392 18.651H18.5852L16.0245 22.1489L15.9981 22.1225L12.3286 27.0195L12.5266 27.6003H13.9654L14.7309 26.056L15.8793 26.1484L14.9157 27.4947L13.9522 28.5507L13.477 29.699L13.675 30.3722L16.4601 27.9699L16.7505 28.2603L15.3117 31.8242L16.0773 31.9166L16.1697 32.6822L17.8988 33.0649V33.6457L17.7008 34.2265L18.4664 34.9921L20.1956 32.7746L21.2515 30.9398H20.6707L22.5055 28.7223V28.2471L21.9247 28.1547L27.3101 20.9345L27.4025 19.2054L25.8582 18.8226L26.7294 17.9514L26.637 17.5686L25.8714 18.0438H24.8154L25.0134 16.2091L24.4326 16.1167V15.4435L25.4886 14.2951V13.7144L24.4854 12.3416C23.8914 13.1864 23.2975 14.018 22.7035 14.8627H21.9511V14.9023Z" fill="#2A2A2A"/>
<path d="M18.5852 18.651L15.998 22.1225L16.0244 22.1489L18.5852 18.651Z" fill="#2A2A2A"/>
<path d="M22.7295 14.9023C23.3235 14.0576 23.9175 13.226 24.5114 12.3812L24.4586 12.302L22.7295 14.9023Z" fill="#2A2A2A"/>
<path d="M33.4082 20.4857L34.7546 22.2149L34.2794 22.8881L37.1701 25.1056L37.3681 25.8712L38.2393 25.4884L39.0048 24.7228L38.622 22.9937L37.5661 22.5185V21.2513L37.0909 19.905H36.2989L35.9161 20.4857L35.8237 20.2878L36.4969 19.2318L35.5465 18.189C34.8734 18.717 34.187 19.245 33.5138 19.773L33.4082 20.4857Z" fill="#2A2A2A"/>
<path d="M33.5005 19.707L33.4873 19.7598C34.1605 19.2318 34.8469 18.7038 35.5201 18.1758L35.4145 18.057L33.5005 19.707Z" fill="#2A2A2A"/>
<path d="M4.15778 36.84L4.10498 37.038C4.15778 37.1304 4.21058 37.2096 4.26337 37.302L4.15778 36.84Z" fill="#2A2A2A"/>
<path d="M44.3771 38.4768L43.3211 36.7476L43.9019 36.9456L43.3211 35.5993L42.6479 33.7645L42.0672 35.6917L41.4864 37.1304L41.8692 37.038L40.9056 38.8728L41.6712 38.5824L40.998 39.9287L40.9056 40.3115L41.196 40.4039L41.394 40.2059L41.196 41.4599L40.9056 41.5523L40.8132 41.4599V41.2619L41.0112 40.7867L40.6284 40.4039V40.0211L40.8264 39.6383L40.1532 38.1996L39.678 36.0876L39.2952 38.1996L38.6221 40.0343L38.9125 39.6515V40.3247L38.7145 40.6151L37.4605 38.3052L38.4241 38.1072L37.1701 35.8897L37.7509 36.2724V35.8897L36.4045 32.9065L35.639 30.5042L34.8734 33.5797L34.0022 36.5628L34.6754 36.4704L33.4214 39.1631L33.7118 39.3611L34.385 38.688L33.4214 41.1959L34.0946 40.5227L34.0022 41.4863L33.329 41.7767L32.2731 39.8495L33.1442 40.3247L31.9959 38.1072L32.8671 38.5824L31.4283 35.982L30.6627 33.4741L29.6992 36.6552L28.5508 38.6748H29.1316L27.8776 41.2751L28.5508 40.8923L28.1152 41.8427H26.9668L26.0033 39.8231L26.6765 40.4039H27.2572L26.3861 38.292L26.9668 38.3844L25.7129 35.7841L27.0592 36.2592L25.9109 34.6225L26.782 34.9129L25.3433 31.8374L24.8681 29.5275L24.1949 27.3099L23.4294 29.4219L22.8486 31.6394L21.3042 34.2397L21.885 33.6589L21.1194 35.8765L21.885 35.2957L20.1559 39.0444L21.1194 38.6616L20.0635 41.3543L20.7366 41.0639L20.4463 41.9351H19.9315L19.2583 40.3907H20.1295L18.6907 38.4636L19.3639 38.556L18.0175 36.6288L17.054 34.9921L16.1828 36.7212L15.1268 38.7408H15.7076L15.3116 39.7307L14.7308 40.9847H15.3116V41.3675L15.0212 41.7503L14.546 41.9483L14.0709 42.0407L12.8169 39.7307H13.4901L12.5265 37.2228L11.9457 35.4937L11.2725 37.3284L10.4014 39.4403L10.8766 39.15L10.111 40.8791L9.7282 40.1135L9.25301 38.8596L8.67223 40.2983L8.28944 41.1695L8.67223 41.3675V41.5655L8.47424 41.8559L7.89346 41.7635V41.5655L8.27624 41.3675L7.80106 40.6943L7.32587 39.6383L7.03548 37.8036L6.6527 39.7307L6.3623 40.3115C10.7842 45.6969 17.4895 49.1288 25.0001 49.1288C32.9067 49.1288 39.9156 45.3274 44.3243 39.4535L43.8095 38.292L44.3771 38.4768Z" fill="#2A2A2A"/>
</svg>
